# xmcd
#
# Track frame offsets: 
#        150
#        10441
#        26414
#        43358
#        63439
#        77564
#        90559
#        101929
#        112257
#        146794
#        165848
#        174117
#
# Disc length: 2591 seconds
#
# Revision: 0
# Processed by: cddbd v1.5.2PL0 Copyright (c) Steve Scherf et al.
# Submitted via: ExactAudioCopy v1.0b4
#
DISCID=9a0a1d0c
DTITLE=Horace Sprott - Ain't This a Mean World
DYEAR=2015
DGENRE=Blues
TTITLE0=Smoked Like Lightning
TTITLE1=Ain't This a Mean World
TTITLE2=Dives and Lazarus - Dip Your Finger Down In the Water and Cool
TTITLE2=My Parcherin Tongue
TTITLE3=Say You Don't Know Honey
TTITLE4=Oh Glad Oh Free
TTITLE5=When the Saints Go Marching Home
TTITLE6=Luke and Mullen
TTITLE7=One Dollar Bill, Two Dollar Bill
TTITLE8=Mama Don't Treat Your Daughter Mean - Interview
TTITLE9=Early One Morning the Blues Come Falling Down
TTITLE10=My Hoe Leadin My Row
TTITLE11=Jesus Going To Make Up My Dying Bed
EXTD=
EXTT0=
EXTT1=
EXTT2=
EXTT3=
EXTT4=
EXTT5=
EXTT6=
EXTT7=
EXTT8=
EXTT9=
EXTT10=
EXTT11=
PLAYORDER=
